<?xml version="1.0" standalone="no"?>
<!DOCTYPE svg PUBLIC "-//W3C//DTD SVG 20010904//EN"
 "http://www.w3.org/TR/2001/REC-SVG-20010904/DTD/svg10.dtd">
<svg version="1.0" xmlns="http://www.w3.org/2000/svg"
 width="784.000000pt" height="726.000000pt" viewBox="0 0 784.000000 726.000000"
 preserveAspectRatio="xMidYMid meet">

<g transform="translate(0.000000,726.000000) scale(0.100000,-0.100000)"
fill="#000000" stroke="none">
<path d="M3595 6869 c-612 -58 -1190 -291 -1670 -674 -134 -107 -391 -365
-493 -497 -343 -442 -546 -916 -634 -1478 -19 -127 -22 -183 -22 -445 0 -257
3 -319 21 -435 58 -370 152 -662 314 -980 227 -446 552 -820 969 -1116 115
-82 310 -201 310 -190 0 2 -37 26 -82 52 -198 116 -424 300 -620 503 -459 477
-741 1071 -834 1756 -24 179 -24 559 0 740 82 610 312 1143 693 1603 46 54
147 162 226 239 610 594 1456 911 2301 863 982 -56 1855 -553 2398 -1365 85
-127 99 -145 78 -105 -33 63 -184 285 -260 380 -112 139 -369 395 -500 497
-454 351 -950 559 -1521 638 -138 19 -534 27 -674 14z"/>
<path d="M2865 5346 c-161 -32 -268 -87 -370 -190 -128 -129 -187 -296 -188
-526 0 -228 58 -452 190 -732 l46 -98 -56 -118 c-161 -341 -218 -680 -157
-937 7 -27 32 -92 57 -144 82 -171 227 -285 428 -337 104 -27 345 -25 479 5
140 30 316 91 452 155 l116 56 97 -47 c332 -158 647 -221 895 -178 281 49 470
217 542 480 22 81 30 301 14 406 -25 173 -88 371 -179 561 l-47 97 32 63 c86
172 160 394 189 567 21 125 16 342 -10 436 -125 452 -584 609 -1181 404 -66
-22 -171 -65 -234 -95 l-115 -55 -125 59 c-143 68 -304 124 -441 153 -125 26
-340 33 -434 15z m322 -47 c100 -13 282 -61 379 -100 114 -45 234 -101 234
-109 0 -4 -39 -31 -87 -60 -119 -73 -250 -167 -380 -275 -123 -102 -383 -361
-383 -382 0 -7 7 -16 16 -20 11 -4 54 33 147 127 220 222 428 390 650 524 l98
59 42 -23 c87 -48 266 -170 377 -256 144 -111 438 -403 554 -549 214 -270 369
-545 460 -817 60 -180 71 -253 71 -448 -1 -164 -3 -180 -29 -258 -122 -369
-495 -505 -1002 -368 -105 29 -249 84 -347 133 l-69 34 84 51 c211 128 383
264 596 474 128 125 173 175 170 190 -2 10 -9 19 -15 19 -7 0 -90 -76 -185
-170 -219 -215 -464 -405 -665 -515 l-41 -23 -64 39 c-117 70 -264 172 -369
255 -134 105 -433 404 -538 538 -263 332 -444 695 -512 1021 -29 144 -29 342
0 453 57 215 207 375 404 432 122 35 261 44 404 24z m1728 -14 c33 -9 96 -35
140 -58 157 -82 263 -228 301 -416 26 -130 16 -339 -24 -491 -35 -135 -90
-285 -142 -390 l-38 -75 -23 40 c-66 113 -209 314 -302 425 -123 148 -352 373
-490 484 -93 74 -295 214 -382 265 l-40 23 85 40 c177 82 351 138 507 163 111
18 324 13 408 -10z m-2178 -1793 c254 -361 625 -711 981 -927 45 -27 82 -53
82 -56 0 -9 -170 -86 -273 -124 -51 -18 -146 -45 -212 -61 -103 -24 -142 -28
-275 -28 -118 0 -171 4 -220 18 -484 132 -601 648 -298 1324 l50 112 59 -96
c32 -53 80 -126 106 -162z"/>
<path d="M3772 3979 c-114 -56 -143 -202 -61 -302 96 -117 298 -75 339 71 13
48 13 71 -1 113 -40 118 -167 172 -277 118z m169 -53 c122 -83 66 -266 -81
-266 -112 0 -177 101 -132 203 38 85 137 114 213 63z"/>
<path d="M6570 5290 c6 -11 13 -20 16 -20 2 0 0 9 -6 20 -6 11 -13 20 -16 20
-2 0 0 -9 6 -20z"/>
</g>
</svg>
